<?xml version="1.0" encoding="utf-8" standalone="no"?>
<!DOCTYPE svg PUBLIC "-//W3C//DTD SVG 1.1//EN"
  "http://www.w3.org/Graphics/SVG/1.1/DTD/svg11.dtd">
<svg xmlns:xlink="http://www.w3.org/1999/xlink" width="432pt" height="270pt" viewBox="0 0 432 270" xmlns="http://www.w3.org/2000/svg" version="1.1">
 <metadata>
  <rdf:RDF xmlns:dc="http://purl.org/dc/elements/1.1/" xmlns:cc="http://creativecommons.org/ns#" xmlns:rdf="http://www.w3.org/1999/02/22-rdf-syntax-ns#">
   <cc:Work>
    <dc:type rdf:resource="http://purl.org/dc/dcmitype/StillImage"/>
    <dc:date>2025-05-19T09:08:38.925530</dc:date>
    <dc:format>image/svg+xml</dc:format>
    <dc:creator>
     <cc:Agent>
      <dc:title>Matplotlib v3.10.1, https://matplotlib.org/</dc:title>
     </cc:Agent>
    </dc:creator>
   </cc:Work>
  </rdf:RDF>
 </metadata>
 <defs>
  <style type="text/css">*{stroke-linejoin: round; stroke-linecap: butt}</style>
 </defs>
 <g id="figure_1">
  <g id="patch_1">
   <path d="M 0 270 
L 432 270 
L 432 0 
L 0 0 
z
" style="fill: #ffffff"/>
  </g>
  <g id="axes_1">
   <g id="patch_2">
    <path d="M 34.50024 230.81976 
L 428.99976 230.81976 
L 428.99976 3.00024 
L 34.50024 3.00024 
z
" style="fill: #ffffff"/>
   </g>
   <g id="matplotlib.axis_1">
    <g id="xtick_1">
     <g id="line2d_1">
      <path d="M 34.50024 230.81976 
L 34.50024 3.00024 
" clip-path="url(#p13b0016ff7)" style="fill: none; stroke: #b0b0b0; stroke-opacity: 0.6; stroke-width: 0.4; stroke-linecap: square"/>
     </g>
     <g id="line2d_2">
      <defs>
       <path id="ma8453b91e7" d="M 0 0 
L 0 4 
" style="stroke: #000000; stroke-width: 0.7"/>
      </defs>
      <g>
       <use xlink:href="#ma8453b91e7" x="34.50024" y="230.81976" style="stroke: #000000; stroke-width: 0.7"/>
      </g>
     </g>
     <g id="text_1">
      <!-- $\mathdefault{10^{-2}}$ -->
      <g transform="translate(22.44024 246.672885) scale(0.12 -0.12)">
       <defs>
        <path id="Cmr10-31" d="M 594 0 
L 594 225 
Q 1394 225 1394 428 
L 1394 3788 
Q 1063 3628 556 3628 
L 556 3853 
Q 1341 3853 1741 4263 
L 1831 4263 
Q 1853 4263 1873 4245 
Q 1894 4228 1894 4206 
L 1894 428 
Q 1894 225 2694 225 
L 2694 0 
L 594 0 
z
" transform="scale(0.015625)"/>
        <path id="Cmr10-30" d="M 1600 -141 
Q 816 -141 533 504 
Q 250 1150 250 2041 
Q 250 2597 351 3087 
Q 453 3578 754 3920 
Q 1056 4263 1600 4263 
Q 2022 4263 2290 4056 
Q 2559 3850 2700 3523 
Q 2841 3197 2892 2823 
Q 2944 2450 2944 2041 
Q 2944 1491 2842 1011 
Q 2741 531 2444 195 
Q 2147 -141 1600 -141 
z
M 1600 25 
Q 1956 25 2131 390 
Q 2306 756 2347 1200 
Q 2388 1644 2388 2144 
Q 2388 2625 2347 3031 
Q 2306 3438 2132 3767 
Q 1959 4097 1600 4097 
Q 1238 4097 1063 3765 
Q 888 3434 847 3029 
Q 806 2625 806 2144 
Q 806 1788 823 1472 
Q 841 1156 916 820 
Q 991 484 1158 254 
Q 1325 25 1600 25 
z
" transform="scale(0.015625)"/>
        <path id="Cmsy10-a1" d="M 653 1472 
Q 600 1472 565 1512 
Q 531 1553 531 1600 
Q 531 1647 565 1687 
Q 600 1728 653 1728 
L 4325 1728 
Q 4375 1728 4408 1687 
Q 4441 1647 4441 1600 
Q 4441 1553 4408 1512 
Q 4375 1472 4325 1472 
L 653 1472 
z
" transform="scale(0.015625)"/>
        <path id="Cmr10-32" d="M 319 0 
L 319 172 
Q 319 188 331 206 
L 1325 1306 
Q 1550 1550 1690 1715 
Q 1831 1881 1968 2097 
Q 2106 2313 2186 2536 
Q 2266 2759 2266 3009 
Q 2266 3272 2169 3511 
Q 2072 3750 1880 3894 
Q 1688 4038 1416 4038 
Q 1138 4038 916 3870 
Q 694 3703 603 3438 
Q 628 3444 672 3444 
Q 816 3444 917 3347 
Q 1019 3250 1019 3097 
Q 1019 2950 917 2848 
Q 816 2747 672 2747 
Q 522 2747 420 2851 
Q 319 2956 319 3097 
Q 319 3338 409 3548 
Q 500 3759 670 3923 
Q 841 4088 1055 4175 
Q 1269 4263 1509 4263 
Q 1875 4263 2190 4108 
Q 2506 3953 2690 3670 
Q 2875 3388 2875 3009 
Q 2875 2731 2753 2481 
Q 2631 2231 2440 2026 
Q 2250 1822 1953 1562 
Q 1656 1303 1563 1216 
L 838 519 
L 1453 519 
Q 1906 519 2211 526 
Q 2516 534 2534 550 
Q 2609 631 2688 1141 
L 2875 1141 
L 2694 0 
L 319 0 
z
" transform="scale(0.015625)"/>
       </defs>
       <use xlink:href="#Cmr10-31" transform="translate(0 0.223438)"/>
       <use xlink:href="#Cmr10-30" transform="translate(50 0.223438)"/>
       <use xlink:href="#Cmsy10-a1" transform="translate(104.5675 39.373438) scale(0.7)"/>
       <use xlink:href="#Cmr10-32" transform="translate(158.947383 39.373438) scale(0.7)"/>
      </g>
     </g>
    </g>
    <g id="xtick_2">
     <g id="line2d_3">
      <path d="M 138.914261 230.81976 
L 138.914261 3.00024 
" clip-path="url(#p13b0016ff7)" style="fill: none; stroke: #b0b0b0; stroke-opacity: 0.6; stroke-width: 0.4; stroke-linecap: square"/>
     </g>
     <g id="line2d_4">
      <g>
       <use xlink:href="#ma8453b91e7" x="138.914261" y="230.81976" style="stroke: #000000; stroke-width: 0.7"/>
      </g>
     </g>
     <g id="text_2">
      <!-- $\mathdefault{10^{-1}}$ -->
      <g transform="translate(126.854261 246.672885) scale(0.12 -0.12)">
       <use xlink:href="#Cmr10-31" transform="translate(0 0.223438)"/>
       <use xlink:href="#Cmr10-30" transform="translate(50 0.223438)"/>
       <use xlink:href="#Cmsy10-a1" transform="translate(104.5675 39.373438) scale(0.7)"/>
       <use xlink:href="#Cmr10-31" transform="translate(158.947383 39.373438) scale(0.7)"/>
      </g>
     </g>
    </g>
    <g id="xtick_3">
     <g id="line2d_5">
      <path d="M 243.328281 230.81976 
L 243.328281 3.00024 
" clip-path="url(#p13b0016ff7)" style="fill: none; stroke: #b0b0b0; stroke-opacity: 0.6; stroke-width: 0.4; stroke-linecap: square"/>
     </g>
     <g id="line2d_6">
      <g>
       <use xlink:href="#ma8453b91e7" x="243.328281" y="230.81976" style="stroke: #000000; stroke-width: 0.7"/>
      </g>
     </g>
     <g id="text_3">
      <!-- $\mathdefault{10^{0}}$ -->
      <g transform="translate(234.508281 246.672885) scale(0.12 -0.12)">
       <use xlink:href="#Cmr10-31" transform="translate(0 0.223438)"/>
       <use xlink:href="#Cmr10-30" transform="translate(50 0.223438)"/>
       <use xlink:href="#Cmr10-30" transform="translate(104.5675 39.373438) scale(0.7)"/>
      </g>
     </g>
    </g>
    <g id="xtick_4">
     <g id="line2d_7">
      <path d="M 347.742302 230.81976 
L 347.742302 3.00024 
" clip-path="url(#p13b0016ff7)" style="fill: none; stroke: #b0b0b0; stroke-opacity: 0.6; stroke-width: 0.4; stroke-linecap: square"/>
     </g>
     <g id="line2d_8">
      <g>
       <use xlink:href="#ma8453b91e7" x="347.742302" y="230.81976" style="stroke: #000000; stroke-width: 0.7"/>
      </g>
     </g>
     <g id="text_4">
      <!-- $\mathdefault{10^{1}}$ -->
      <g transform="translate(338.922302 246.672885) scale(0.12 -0.12)">
       <use xlink:href="#Cmr10-31" transform="translate(0 0.223438)"/>
       <use xlink:href="#Cmr10-30" transform="translate(50 0.223438)"/>
       <use xlink:href="#Cmr10-31" transform="translate(104.5675 39.373438) scale(0.7)"/>
      </g>
     </g>
    </g>
    <g id="xtick_5">
     <g id="line2d_9">
      <path d="M 65.931992 230.81976 
L 65.931992 3.00024 
" clip-path="url(#p13b0016ff7)" style="fill: none; stroke: #b0b0b0; stroke-opacity: 0.35; stroke-width: 0.15; stroke-linecap: square"/>
     </g>
     <g id="line2d_10">
      <defs>
       <path id="m7073ac8524" d="M 0 0 
L 0 2 
" style="stroke: #000000; stroke-width: 0.5"/>
      </defs>
      <g>
       <use xlink:href="#m7073ac8524" x="65.931992" y="230.81976" style="stroke: #000000; stroke-width: 0.5"/>
      </g>
     </g>
    </g>
    <g id="xtick_6">
     <g id="line2d_11">
      <path d="M 84.318389 230.81976 
L 84.318389 3.00024 
" clip-path="url(#p13b0016ff7)" style="fill: none; stroke: #b0b0b0; stroke-opacity: 0.35; stroke-width: 0.15; stroke-linecap: square"/>
     </g>
     <g id="line2d_12">
      <g>
       <use xlink:href="#m7073ac8524" x="84.318389" y="230.81976" style="stroke: #000000; stroke-width: 0.5"/>
      </g>
     </g>
    </g>
    <g id="xtick_7">
     <g id="line2d_13">
      <path d="M 97.363744 230.81976 
L 97.363744 3.00024 
" clip-path="url(#p13b0016ff7)" style="fill: none; stroke: #b0b0b0; stroke-opacity: 0.35; stroke-width: 0.15; stroke-linecap: square"/>
     </g>
     <g id="line2d_14">
      <g>
       <use xlink:href="#m7073ac8524" x="97.363744" y="230.81976" style="stroke: #000000; stroke-width: 0.5"/>
      </g>
     </g>
    </g>
    <g id="xtick_8">
     <g id="line2d_15">
      <path d="M 107.482509 230.81976 
L 107.482509 3.00024 
" clip-path="url(#p13b0016ff7)" style="fill: none; stroke: #b0b0b0; stroke-opacity: 0.35; stroke-width: 0.15; stroke-linecap: square"/>
     </g>
     <g id="line2d_16">
      <g>
       <use xlink:href="#m7073ac8524" x="107.482509" y="230.81976" style="stroke: #000000; stroke-width: 0.5"/>
      </g>
     </g>
    </g>
    <g id="xtick_9">
     <g id="line2d_17">
      <path d="M 115.750141 230.81976 
L 115.750141 3.00024 
" clip-path="url(#p13b0016ff7)" style="fill: none; stroke: #b0b0b0; stroke-opacity: 0.35; stroke-width: 0.15; stroke-linecap: square"/>
     </g>
     <g id="line2d_18">
      <g>
       <use xlink:href="#m7073ac8524" x="115.750141" y="230.81976" style="stroke: #000000; stroke-width: 0.5"/>
      </g>
     </g>
    </g>
    <g id="xtick_10">
     <g id="line2d_19">
      <path d="M 122.740324 230.81976 
L 122.740324 3.00024 
" clip-path="url(#p13b0016ff7)" style="fill: none; stroke: #b0b0b0; stroke-opacity: 0.35; stroke-width: 0.15; stroke-linecap: square"/>
     </g>
     <g id="line2d_20">
      <g>
       <use xlink:href="#m7073ac8524" x="122.740324" y="230.81976" style="stroke: #000000; stroke-width: 0.5"/>
      </g>
     </g>
    </g>
    <g id="xtick_11">
     <g id="line2d_21">
      <path d="M 128.795497 230.81976 
L 128.795497 3.00024 
" clip-path="url(#p13b0016ff7)" style="fill: none; stroke: #b0b0b0; stroke-opacity: 0.35; stroke-width: 0.15; stroke-linecap: square"/>
     </g>
     <g id="line2d_22">
      <g>
       <use xlink:href="#m7073ac8524" x="128.795497" y="230.81976" style="stroke: #000000; stroke-width: 0.5"/>
      </g>
     </g>
    </g>
    <g id="xtick_12">
     <g id="line2d_23">
      <path d="M 134.136537 230.81976 
L 134.136537 3.00024 
" clip-path="url(#p13b0016ff7)" style="fill: none; stroke: #b0b0b0; stroke-opacity: 0.35; stroke-width: 0.15; stroke-linecap: square"/>
     </g>
     <g id="line2d_24">
      <g>
       <use xlink:href="#m7073ac8524" x="134.136537" y="230.81976" style="stroke: #000000; stroke-width: 0.5"/>
      </g>
     </g>
    </g>
    <g id="xtick_13">
     <g id="line2d_25">
      <path d="M 170.346013 230.81976 
L 170.346013 3.00024 
" clip-path="url(#p13b0016ff7)" style="fill: none; stroke: #b0b0b0; stroke-opacity: 0.35; stroke-width: 0.15; stroke-linecap: square"/>
     </g>
     <g id="line2d_26">
      <g>
       <use xlink:href="#m7073ac8524" x="170.346013" y="230.81976" style="stroke: #000000; stroke-width: 0.5"/>
      </g>
     </g>
    </g>
    <g id="xtick_14">
     <g id="line2d_27">
      <path d="M 188.732409 230.81976 
L 188.732409 3.00024 
" clip-path="url(#p13b0016ff7)" style="fill: none; stroke: #b0b0b0; stroke-opacity: 0.35; stroke-width: 0.15; stroke-linecap: square"/>
     </g>
     <g id="line2d_28">
      <g>
       <use xlink:href="#m7073ac8524" x="188.732409" y="230.81976" style="stroke: #000000; stroke-width: 0.5"/>
      </g>
     </g>
    </g>
    <g id="xtick_15">
     <g id="line2d_29">
      <path d="M 201.777765 230.81976 
L 201.777765 3.00024 
" clip-path="url(#p13b0016ff7)" style="fill: none; stroke: #b0b0b0; stroke-opacity: 0.35; stroke-width: 0.15; stroke-linecap: square"/>
     </g>
     <g id="line2d_30">
      <g>
       <use xlink:href="#m7073ac8524" x="201.777765" y="230.81976" style="stroke: #000000; stroke-width: 0.5"/>
      </g>
     </g>
    </g>
    <g id="xtick_16">
     <g id="line2d_31">
      <path d="M 211.896529 230.81976 
L 211.896529 3.00024 
" clip-path="url(#p13b0016ff7)" style="fill: none; stroke: #b0b0b0; stroke-opacity: 0.35; stroke-width: 0.15; stroke-linecap: square"/>
     </g>
     <g id="line2d_32">
      <g>
       <use xlink:href="#m7073ac8524" x="211.896529" y="230.81976" style="stroke: #000000; stroke-width: 0.5"/>
      </g>
     </g>
    </g>
    <g id="xtick_17">
     <g id="line2d_33">
      <path d="M 220.164161 230.81976 
L 220.164161 3.00024 
" clip-path="url(#p13b0016ff7)" style="fill: none; stroke: #b0b0b0; stroke-opacity: 0.35; stroke-width: 0.15; stroke-linecap: square"/>
     </g>
     <g id="line2d_34">
      <g>
       <use xlink:href="#m7073ac8524" x="220.164161" y="230.81976" style="stroke: #000000; stroke-width: 0.5"/>
      </g>
     </g>
    </g>
    <g id="xtick_18">
     <g id="line2d_35">
      <path d="M 227.154345 230.81976 
L 227.154345 3.00024 
" clip-path="url(#p13b0016ff7)" style="fill: none; stroke: #b0b0b0; stroke-opacity: 0.35; stroke-width: 0.15; stroke-linecap: square"/>
     </g>
     <g id="line2d_36">
      <g>
       <use xlink:href="#m7073ac8524" x="227.154345" y="230.81976" style="stroke: #000000; stroke-width: 0.5"/>
      </g>
     </g>
    </g>
    <g id="xtick_19">
     <g id="line2d_37">
      <path d="M 233.209517 230.81976 
L 233.209517 3.00024 
" clip-path="url(#p13b0016ff7)" style="fill: none; stroke: #b0b0b0; stroke-opacity: 0.35; stroke-width: 0.15; stroke-linecap: square"/>
     </g>
     <g id="line2d_38">
      <g>
       <use xlink:href="#m7073ac8524" x="233.209517" y="230.81976" style="stroke: #000000; stroke-width: 0.5"/>
      </g>
     </g>
    </g>
    <g id="xtick_20">
     <g id="line2d_39">
      <path d="M 238.550558 230.81976 
L 238.550558 3.00024 
" clip-path="url(#p13b0016ff7)" style="fill: none; stroke: #b0b0b0; stroke-opacity: 0.35; stroke-width: 0.15; stroke-linecap: square"/>
     </g>
     <g id="line2d_40">
      <g>
       <use xlink:href="#m7073ac8524" x="238.550558" y="230.81976" style="stroke: #000000; stroke-width: 0.5"/>
      </g>
     </g>
    </g>
    <g id="xtick_21">
     <g id="line2d_41">
      <path d="M 274.760034 230.81976 
L 274.760034 3.00024 
" clip-path="url(#p13b0016ff7)" style="fill: none; stroke: #b0b0b0; stroke-opacity: 0.35; stroke-width: 0.15; stroke-linecap: square"/>
     </g>
     <g id="line2d_42">
      <g>
       <use xlink:href="#m7073ac8524" x="274.760034" y="230.81976" style="stroke: #000000; stroke-width: 0.5"/>
      </g>
     </g>
    </g>
    <g id="xtick_22">
     <g id="line2d_43">
      <path d="M 293.14643 230.81976 
L 293.14643 3.00024 
" clip-path="url(#p13b0016ff7)" style="fill: none; stroke: #b0b0b0; stroke-opacity: 0.35; stroke-width: 0.15; stroke-linecap: square"/>
     </g>
     <g id="line2d_44">
      <g>
       <use xlink:href="#m7073ac8524" x="293.14643" y="230.81976" style="stroke: #000000; stroke-width: 0.5"/>
      </g>
     </g>
    </g>
    <g id="xtick_23">
     <g id="line2d_45">
      <path d="M 306.191786 230.81976 
L 306.191786 3.00024 
" clip-path="url(#p13b0016ff7)" style="fill: none; stroke: #b0b0b0; stroke-opacity: 0.35; stroke-width: 0.15; stroke-linecap: square"/>
     </g>
     <g id="line2d_46">
      <g>
       <use xlink:href="#m7073ac8524" x="306.191786" y="230.81976" style="stroke: #000000; stroke-width: 0.5"/>
      </g>
     </g>
    </g>
    <g id="xtick_24">
     <g id="line2d_47">
      <path d="M 316.31055 230.81976 
L 316.31055 3.00024 
" clip-path="url(#p13b0016ff7)" style="fill: none; stroke: #b0b0b0; stroke-opacity: 0.35; stroke-width: 0.15; stroke-linecap: square"/>
     </g>
     <g id="line2d_48">
      <g>
       <use xlink:href="#m7073ac8524" x="316.31055" y="230.81976" style="stroke: #000000; stroke-width: 0.5"/>
      </g>
     </g>
    </g>
    <g id="xtick_25">
     <g id="line2d_49">
      <path d="M 324.578182 230.81976 
L 324.578182 3.00024 
" clip-path="url(#p13b0016ff7)" style="fill: none; stroke: #b0b0b0; stroke-opacity: 0.35; stroke-width: 0.15; stroke-linecap: square"/>
     </g>
     <g id="line2d_50">
      <g>
       <use xlink:href="#m7073ac8524" x="324.578182" y="230.81976" style="stroke: #000000; stroke-width: 0.5"/>
      </g>
     </g>
    </g>
    <g id="xtick_26">
     <g id="line2d_51">
      <path d="M 331.568366 230.81976 
L 331.568366 3.00024 
" clip-path="url(#p13b0016ff7)" style="fill: none; stroke: #b0b0b0; stroke-opacity: 0.35; stroke-width: 0.15; stroke-linecap: square"/>
     </g>
     <g id="line2d_52">
      <g>
       <use xlink:href="#m7073ac8524" x="331.568366" y="230.81976" style="stroke: #000000; stroke-width: 0.5"/>
      </g>
     </g>
    </g>
    <g id="xtick_27">
     <g id="line2d_53">
      <path d="M 337.623538 230.81976 
L 337.623538 3.00024 
" clip-path="url(#p13b0016ff7)" style="fill: none; stroke: #b0b0b0; stroke-opacity: 0.35; stroke-width: 0.15; stroke-linecap: square"/>
     </g>
     <g id="line2d_54">
      <g>
       <use xlink:href="#m7073ac8524" x="337.623538" y="230.81976" style="stroke: #000000; stroke-width: 0.5"/>
      </g>
     </g>
    </g>
    <g id="xtick_28">
     <g id="line2d_55">
      <path d="M 342.964579 230.81976 
L 342.964579 3.00024 
" clip-path="url(#p13b0016ff7)" style="fill: none; stroke: #b0b0b0; stroke-opacity: 0.35; stroke-width: 0.15; stroke-linecap: square"/>
     </g>
     <g id="line2d_56">
      <g>
       <use xlink:href="#m7073ac8524" x="342.964579" y="230.81976" style="stroke: #000000; stroke-width: 0.5"/>
      </g>
     </g>
    </g>
    <g id="xtick_29">
     <g id="line2d_57">
      <path d="M 379.174054 230.81976 
L 379.174054 3.00024 
" clip-path="url(#p13b0016ff7)" style="fill: none; stroke: #b0b0b0; stroke-opacity: 0.35; stroke-width: 0.15; stroke-linecap: square"/>
     </g>
     <g id="line2d_58">
      <g>
       <use xlink:href="#m7073ac8524" x="379.174054" y="230.81976" style="stroke: #000000; stroke-width: 0.5"/>
      </g>
     </g>
    </g>
    <g id="xtick_30">
     <g id="line2d_59">
      <path d="M 397.560451 230.81976 
L 397.560451 3.00024 
" clip-path="url(#p13b0016ff7)" style="fill: none; stroke: #b0b0b0; stroke-opacity: 0.35; stroke-width: 0.15; stroke-linecap: square"/>
     </g>
     <g id="line2d_60">
      <g>
       <use xlink:href="#m7073ac8524" x="397.560451" y="230.81976" style="stroke: #000000; stroke-width: 0.5"/>
      </g>
     </g>
    </g>
    <g id="xtick_31">
     <g id="line2d_61">
      <path d="M 410.605807 230.81976 
L 410.605807 3.00024 
" clip-path="url(#p13b0016ff7)" style="fill: none; stroke: #b0b0b0; stroke-opacity: 0.35; stroke-width: 0.15; stroke-linecap: square"/>
     </g>
     <g id="line2d_62">
      <g>
       <use xlink:href="#m7073ac8524" x="410.605807" y="230.81976" style="stroke: #000000; stroke-width: 0.5"/>
      </g>
     </g>
    </g>
    <g id="xtick_32">
     <g id="line2d_63">
      <path d="M 420.724571 230.81976 
L 420.724571 3.00024 
" clip-path="url(#p13b0016ff7)" style="fill: none; stroke: #b0b0b0; stroke-opacity: 0.35; stroke-width: 0.15; stroke-linecap: square"/>
     </g>
     <g id="line2d_64">
      <g>
       <use xlink:href="#m7073ac8524" x="420.724571" y="230.81976" style="stroke: #000000; stroke-width: 0.5"/>
      </g>
     </g>
    </g>
    <g id="xtick_33">
     <g id="line2d_65">
      <path d="M 428.992203 230.81976 
L 428.992203 3.00024 
" clip-path="url(#p13b0016ff7)" style="fill: none; stroke: #b0b0b0; stroke-opacity: 0.35; stroke-width: 0.15; stroke-linecap: square"/>
     </g>
     <g id="line2d_66">
      <g>
       <use xlink:href="#m7073ac8524" x="428.992203" y="230.81976" style="stroke: #000000; stroke-width: 0.5"/>
      </g>
     </g>
    </g>
    <g id="text_5">
     <!-- Frequency (Hz) -->
     <g transform="translate(187.277812 263.74976) scale(0.13 -0.13)">
      <defs>
       <path id="Cmr10-46" d="M 197 0 
L 197 225 
Q 856 225 856 428 
L 856 3944 
Q 856 4147 197 4147 
L 197 4372 
L 3725 4372 
L 3903 2906 
L 3719 2906 
Q 3675 3309 3601 3542 
Q 3528 3775 3387 3908 
Q 3247 4041 3011 4094 
Q 2775 4147 2363 4147 
L 1778 4147 
Q 1663 4147 1598 4137 
Q 1534 4128 1493 4083 
Q 1453 4038 1453 3944 
L 1453 2297 
L 1906 2297 
Q 2234 2297 2387 2355 
Q 2541 2413 2598 2566 
Q 2656 2719 2656 3047 
L 2841 3047 
L 2841 1325 
L 2656 1325 
Q 2656 1653 2598 1806 
Q 2541 1959 2387 2017 
Q 2234 2075 1906 2075 
L 1453 2075 
L 1453 428 
Q 1453 225 2272 225 
L 2272 0 
L 197 0 
z
" transform="scale(0.015625)"/>
       <path id="Cmr10-72" d="M 166 0 
L 166 225 
Q 384 225 525 259 
Q 666 294 666 428 
L 666 2175 
Q 666 2347 614 2423 
Q 563 2500 466 2517 
Q 369 2534 166 2534 
L 166 2759 
L 1081 2828 
L 1081 2203 
Q 1184 2481 1375 2654 
Q 1566 2828 1838 2828 
Q 2028 2828 2178 2715 
Q 2328 2603 2328 2419 
Q 2328 2303 2245 2217 
Q 2163 2131 2041 2131 
Q 1922 2131 1837 2215 
Q 1753 2300 1753 2419 
Q 1753 2591 1875 2663 
L 1838 2663 
Q 1578 2663 1414 2475 
Q 1250 2288 1181 2009 
Q 1113 1731 1113 1478 
L 1113 428 
Q 1113 225 1734 225 
L 1734 0 
L 166 0 
z
" transform="scale(0.015625)"/>
       <path id="Cmr10-65" d="M 1594 -72 
Q 1203 -72 876 133 
Q 550 338 364 680 
Q 178 1022 178 1403 
Q 178 1778 348 2115 
Q 519 2453 823 2661 
Q 1128 2869 1503 2869 
Q 1797 2869 2014 2770 
Q 2231 2672 2372 2497 
Q 2513 2322 2584 2084 
Q 2656 1847 2656 1563 
Q 2656 1478 2591 1478 
L 738 1478 
L 738 1409 
Q 738 878 952 497 
Q 1166 116 1650 116 
Q 1847 116 2014 203 
Q 2181 291 2304 447 
Q 2428 603 2472 781 
Q 2478 803 2495 820 
Q 2513 838 2534 838 
L 2591 838 
Q 2656 838 2656 756 
Q 2566 394 2266 161 
Q 1966 -72 1594 -72 
z
M 744 1638 
L 2203 1638 
Q 2203 1878 2136 2125 
Q 2069 2372 1912 2536 
Q 1756 2700 1503 2700 
Q 1141 2700 942 2361 
Q 744 2022 744 1638 
z
" transform="scale(0.015625)"/>
       <path id="Cmr10-71" d="M 1919 -1241 
L 1919 -1019 
Q 2138 -1019 2278 -981 
Q 2419 -944 2419 -813 
L 2419 372 
Q 2269 172 2041 50 
Q 1813 -72 1563 -72 
Q 1275 -72 1028 47 
Q 781 166 598 369 
Q 416 572 314 839 
Q 213 1106 213 1381 
Q 213 1763 400 2098 
Q 588 2434 914 2631 
Q 1241 2828 1619 2828 
Q 1891 2828 2122 2675 
Q 2353 2522 2491 2266 
L 2719 2828 
L 2888 2828 
L 2888 -813 
Q 2888 -944 3028 -981 
Q 3169 -1019 3384 -1019 
L 3384 -1241 
L 1919 -1241 
z
M 1600 97 
Q 1884 97 2107 286 
Q 2331 475 2438 763 
L 2438 1888 
Q 2372 2194 2165 2419 
Q 1959 2644 1672 2644 
Q 1453 2644 1281 2528 
Q 1109 2413 995 2219 
Q 881 2025 825 1800 
Q 769 1575 769 1375 
Q 769 1119 859 817 
Q 950 516 1137 306 
Q 1325 97 1600 97 
z
" transform="scale(0.015625)"/>
       <path id="Cmr10-75" d="M 691 763 
L 691 2175 
Q 691 2347 639 2423 
Q 588 2500 491 2517 
Q 394 2534 191 2534 
L 191 2759 
L 1159 2828 
L 1159 763 
Q 1159 513 1195 373 
Q 1231 234 1348 165 
Q 1466 97 1722 97 
Q 2066 97 2269 384 
Q 2472 672 2472 1038 
L 2472 2175 
Q 2472 2347 2419 2423 
Q 2366 2500 2270 2517 
Q 2175 2534 1972 2534 
L 1972 2759 
L 2938 2828 
L 2938 581 
Q 2938 413 2989 336 
Q 3041 259 3137 242 
Q 3234 225 3438 225 
L 3438 0 
L 2491 -72 
L 2491 469 
Q 2372 228 2159 78 
Q 1947 -72 1691 -72 
Q 1231 -72 961 123 
Q 691 319 691 763 
z
" transform="scale(0.015625)"/>
       <path id="Cmr10-6e" d="M 191 0 
L 191 225 
Q 409 225 550 259 
Q 691 294 691 428 
L 691 2175 
Q 691 2347 639 2423 
Q 588 2500 491 2517 
Q 394 2534 191 2534 
L 191 2759 
L 1119 2828 
L 1119 2203 
Q 1247 2478 1498 2653 
Q 1750 2828 2047 2828 
Q 2491 2828 2714 2615 
Q 2938 2403 2938 1966 
L 2938 428 
Q 2938 294 3078 259 
Q 3219 225 3438 225 
L 3438 0 
L 1972 0 
L 1972 225 
Q 2191 225 2331 259 
Q 2472 294 2472 428 
L 2472 1947 
Q 2472 2259 2381 2461 
Q 2291 2663 2009 2663 
Q 1638 2663 1398 2366 
Q 1159 2069 1159 1691 
L 1159 428 
Q 1159 294 1300 259 
Q 1441 225 1656 225 
L 1656 0 
L 191 0 
z
" transform="scale(0.015625)"/>
       <path id="Cmr10-63" d="M 1594 -72 
Q 1206 -72 890 129 
Q 575 331 394 667 
Q 213 1003 213 1381 
Q 213 1759 392 2106 
Q 572 2453 889 2661 
Q 1206 2869 1594 2869 
Q 1969 2869 2276 2722 
Q 2584 2575 2584 2241 
Q 2584 2116 2495 2023 
Q 2406 1931 2278 1931 
Q 2150 1931 2061 2023 
Q 1972 2116 1972 2241 
Q 1972 2353 2044 2436 
Q 2116 2519 2222 2541 
Q 2000 2681 1600 2681 
Q 1294 2681 1106 2478 
Q 919 2275 844 1975 
Q 769 1675 769 1381 
Q 769 1072 861 783 
Q 953 494 1158 305 
Q 1363 116 1672 116 
Q 1975 116 2187 302 
Q 2400 488 2478 788 
Q 2478 825 2528 825 
L 2606 825 
Q 2625 825 2640 808 
Q 2656 791 2656 769 
L 2656 750 
Q 2559 372 2271 150 
Q 1984 -72 1594 -72 
z
" transform="scale(0.015625)"/>
       <path id="Cmr10-79" d="M 441 -1050 
Q 563 -1147 709 -1147 
Q 1113 -1147 1369 -538 
L 1588 0 
L 628 2350 
Q 569 2469 447 2501 
Q 325 2534 122 2534 
L 122 2759 
L 1466 2759 
L 1466 2534 
Q 1113 2534 1113 2381 
Q 1113 2356 1119 2344 
L 1831 594 
L 2472 2169 
Q 2491 2219 2491 2278 
Q 2491 2356 2448 2414 
Q 2406 2472 2339 2503 
Q 2272 2534 2188 2534 
L 2188 2759 
L 3250 2759 
L 3250 2534 
Q 3053 2534 2904 2443 
Q 2756 2353 2675 2175 
L 1569 -538 
Q 1481 -744 1364 -917 
Q 1247 -1091 1078 -1202 
Q 909 -1313 709 -1313 
Q 475 -1313 298 -1158 
Q 122 -1003 122 -775 
Q 122 -656 203 -575 
Q 284 -494 403 -494 
Q 484 -494 548 -530 
Q 613 -566 648 -628 
Q 684 -691 684 -775 
Q 684 -878 615 -959 
Q 547 -1041 441 -1050 
z
" transform="scale(0.015625)"/>
       <path id="Cmr10-20" transform="scale(0.015625)"/>
       <path id="Cmr10-28" d="M 1984 -1588 
Q 1628 -1306 1370 -942 
Q 1113 -578 948 -165 
Q 784 247 703 697 
Q 622 1147 622 1600 
Q 622 2059 703 2509 
Q 784 2959 951 3375 
Q 1119 3791 1378 4153 
Q 1638 4516 1984 4788 
Q 1984 4800 2016 4800 
L 2075 4800 
Q 2094 4800 2109 4783 
Q 2125 4766 2125 4744 
Q 2125 4716 2113 4703 
Q 1800 4397 1592 4047 
Q 1384 3697 1257 3301 
Q 1131 2906 1075 2482 
Q 1019 2059 1019 1600 
Q 1019 -434 2106 -1491 
Q 2125 -1509 2125 -1544 
Q 2125 -1559 2108 -1579 
Q 2091 -1600 2075 -1600 
L 2016 -1600 
Q 1984 -1600 1984 -1588 
z
" transform="scale(0.015625)"/>
       <path id="Cmr10-48" d="M 197 0 
L 197 225 
Q 856 225 856 428 
L 856 3944 
Q 856 4147 197 4147 
L 197 4372 
L 2113 4372 
L 2113 4147 
Q 1453 4147 1453 3944 
L 1453 2388 
L 3341 2388 
L 3341 3944 
Q 3341 4147 2681 4147 
L 2681 4372 
L 4594 4372 
L 4594 4147 
Q 3938 4147 3938 3944 
L 3938 428 
Q 3938 225 4594 225 
L 4594 0 
L 2681 0 
L 2681 225 
Q 3341 225 3341 428 
L 3341 2163 
L 1453 2163 
L 1453 428 
Q 1453 225 2113 225 
L 2113 0 
L 197 0 
z
" transform="scale(0.015625)"/>
       <path id="Cmr10-7a" d="M 250 0 
Q 178 0 178 72 
L 178 122 
Q 178 147 197 166 
L 1984 2591 
L 1409 2591 
Q 1138 2591 961 2556 
Q 784 2522 670 2426 
Q 556 2331 504 2164 
Q 453 1997 453 1703 
L 269 1703 
L 341 2759 
L 2484 2759 
Q 2513 2759 2533 2739 
Q 2553 2719 2553 2688 
L 2553 2650 
Q 2553 2631 2541 2606 
L 750 184 
L 1363 184 
Q 1641 184 1827 218 
Q 2013 253 2144 384 
Q 2266 506 2311 712 
Q 2356 919 2381 1222 
L 2566 1222 
L 2456 0 
L 250 0 
z
" transform="scale(0.015625)"/>
       <path id="Cmr10-29" d="M 416 -1600 
Q 359 -1600 359 -1544 
Q 359 -1516 372 -1503 
Q 1466 -434 1466 1600 
Q 1466 3634 384 4691 
Q 359 4706 359 4744 
Q 359 4766 376 4783 
Q 394 4800 416 4800 
L 475 4800 
Q 494 4800 506 4788 
Q 966 4425 1272 3906 
Q 1578 3388 1720 2800 
Q 1863 2213 1863 1600 
Q 1863 1147 1786 708 
Q 1709 269 1542 -157 
Q 1375 -584 1119 -945 
Q 863 -1306 506 -1588 
Q 494 -1600 475 -1600 
L 416 -1600 
z
" transform="scale(0.015625)"/>
      </defs>
      <use xlink:href="#Cmr10-46"/>
      <use xlink:href="#Cmr10-72" transform="translate(65.185547 0)"/>
      <use xlink:href="#Cmr10-65" transform="translate(104.296875 0)"/>
      <use xlink:href="#Cmr10-71" transform="translate(148.681641 0)"/>
      <use xlink:href="#Cmr10-75" transform="translate(201.367188 0)"/>
      <use xlink:href="#Cmr10-65" transform="translate(256.884766 0)"/>
      <use xlink:href="#Cmr10-6e" transform="translate(301.269531 0)"/>
      <use xlink:href="#Cmr10-63" transform="translate(356.787109 0)"/>
      <use xlink:href="#Cmr10-79" transform="translate(401.171875 0)"/>
      <use xlink:href="#Cmr10-20" transform="translate(453.857422 0)"/>
      <use xlink:href="#Cmr10-28" transform="translate(487.158203 0)"/>
      <use xlink:href="#Cmr10-48" transform="translate(525.976562 0)"/>
      <use xlink:href="#Cmr10-7a" transform="translate(600.976562 0)"/>
      <use xlink:href="#Cmr10-29" transform="translate(645.361328 0)"/>
     </g>
    </g>
   </g>
   <g id="matplotlib.axis_2">
    <g id="ytick_1">
     <g id="line2d_67">
      <path d="M 34.50024 181.36246 
L 428.99976 181.36246 
" clip-path="url(#p13b0016ff7)" style="fill: none; stroke: #b0b0b0; stroke-opacity: 0.6; stroke-width: 0.4; stroke-linecap: square"/>
     </g>
     <g id="line2d_68">
      <defs>
       <path id="mae3c7ff24c" d="M 0 0 
L -4 0 
" style="stroke: #000000; stroke-width: 0.7"/>
      </defs>
      <g>
       <use xlink:href="#mae3c7ff24c" x="34.50024" y="181.36246" style="stroke: #000000; stroke-width: 0.7"/>
      </g>
     </g>
     <g id="text_6">
      <!-- $\mathdefault{1}$ -->
      <g transform="translate(21.00024 185.525898) scale(0.12 -0.12)">
       <use xlink:href="#Cmr10-31" transform="translate(0 0.390625)"/>
      </g>
     </g>
    </g>
    <g id="ytick_2">
     <g id="line2d_69">
      <path d="M 34.50024 131.900888 
L 428.99976 131.900888 
" clip-path="url(#p13b0016ff7)" style="fill: none; stroke: #b0b0b0; stroke-opacity: 0.6; stroke-width: 0.4; stroke-linecap: square"/>
     </g>
     <g id="line2d_70">
      <g>
       <use xlink:href="#mae3c7ff24c" x="34.50024" y="131.900888" style="stroke: #000000; stroke-width: 0.7"/>
      </g>
     </g>
     <g id="text_7">
      <!-- $\mathdefault{2}$ -->
      <g transform="translate(21.00024 136.064326) scale(0.12 -0.12)">
       <use xlink:href="#Cmr10-32" transform="translate(0 0.390625)"/>
      </g>
     </g>
    </g>
    <g id="ytick_3">
     <g id="line2d_71">
      <path d="M 34.50024 82.439317 
L 428.99976 82.439317 
" clip-path="url(#p13b0016ff7)" style="fill: none; stroke: #b0b0b0; stroke-opacity: 0.6; stroke-width: 0.4; stroke-linecap: square"/>
     </g>
     <g id="line2d_72">
      <g>
       <use xlink:href="#mae3c7ff24c" x="34.50024" y="82.439317" style="stroke: #000000; stroke-width: 0.7"/>
      </g>
     </g>
     <g id="text_8">
      <!-- $\mathdefault{3}$ -->
      <g transform="translate(21.00024 86.602754) scale(0.12 -0.12)">
       <defs>
        <path id="Cmr10-33" d="M 609 494 
Q 759 275 1012 169 
Q 1266 63 1556 63 
Q 1928 63 2084 380 
Q 2241 697 2241 1100 
Q 2241 1281 2208 1462 
Q 2175 1644 2097 1800 
Q 2019 1956 1883 2050 
Q 1747 2144 1550 2144 
L 1125 2144 
Q 1069 2144 1069 2203 
L 1069 2259 
Q 1069 2309 1125 2309 
L 1478 2338 
Q 1703 2338 1851 2506 
Q 2000 2675 2069 2917 
Q 2138 3159 2138 3378 
Q 2138 3684 1994 3881 
Q 1850 4078 1556 4078 
Q 1313 4078 1091 3986 
Q 869 3894 738 3706 
Q 750 3709 759 3711 
Q 769 3713 781 3713 
Q 925 3713 1022 3613 
Q 1119 3513 1119 3372 
Q 1119 3234 1022 3134 
Q 925 3034 781 3034 
Q 641 3034 541 3134 
Q 441 3234 441 3372 
Q 441 3647 606 3850 
Q 772 4053 1033 4158 
Q 1294 4263 1556 4263 
Q 1750 4263 1965 4205 
Q 2181 4147 2356 4039 
Q 2531 3931 2642 3762 
Q 2753 3594 2753 3378 
Q 2753 3109 2633 2881 
Q 2513 2653 2303 2487 
Q 2094 2322 1844 2241 
Q 2122 2188 2372 2031 
Q 2622 1875 2773 1631 
Q 2925 1388 2925 1106 
Q 2925 753 2731 467 
Q 2538 181 2222 20 
Q 1906 -141 1556 -141 
Q 1256 -141 954 -26 
Q 653 88 461 316 
Q 269 544 269 863 
Q 269 1022 375 1128 
Q 481 1234 641 1234 
Q 744 1234 830 1186 
Q 916 1138 964 1050 
Q 1013 963 1013 863 
Q 1013 706 903 600 
Q 794 494 641 494 
L 609 494 
z
" transform="scale(0.015625)"/>
       </defs>
       <use xlink:href="#Cmr10-33" transform="translate(0 0.390625)"/>
      </g>
     </g>
    </g>
    <g id="ytick_4">
     <g id="line2d_73">
      <path d="M 34.50024 32.977745 
L 428.99976 32.977745 
" clip-path="url(#p13b0016ff7)" style="fill: none; stroke: #b0b0b0; stroke-opacity: 0.6; stroke-width: 0.4; stroke-linecap: square"/>
     </g>
     <g id="line2d_74">
      <g>
       <use xlink:href="#mae3c7ff24c" x="34.50024" y="32.977745" style="stroke: #000000; stroke-width: 0.7"/>
      </g>
     </g>
     <g id="text_9">
      <!-- $\mathdefault{4}$ -->
      <g transform="translate(21.00024 37.141182) scale(0.12 -0.12)">
       <defs>
        <path id="Cmr10-34" d="M 178 1056 
L 178 1281 
L 2156 4231 
Q 2178 4263 2222 4263 
L 2316 4263 
Q 2388 4263 2388 4191 
L 2388 1281 
L 3016 1281 
L 3016 1056 
L 2388 1056 
L 2388 428 
Q 2388 297 2575 261 
Q 2763 225 3009 225 
L 3009 0 
L 1247 0 
L 1247 225 
Q 1494 225 1681 261 
Q 1869 297 1869 428 
L 1869 1056 
L 178 1056 
z
M 391 1281 
L 1906 1281 
L 1906 3547 
L 391 1281 
z
" transform="scale(0.015625)"/>
       </defs>
       <use xlink:href="#Cmr10-34" transform="translate(0 0.390625)"/>
      </g>
     </g>
    </g>
    <g id="ytick_5">
     <g id="line2d_75">
      <path d="M 34.50024 220.931717 
L 428.99976 220.931717 
" clip-path="url(#p13b0016ff7)" style="fill: none; stroke: #b0b0b0; stroke-opacity: 0.35; stroke-width: 0.15; stroke-linecap: square"/>
     </g>
     <g id="line2d_76">
      <defs>
       <path id="medc2113b73" d="M 0 0 
L -2 0 
" style="stroke: #000000; stroke-width: 0.5"/>
      </defs>
      <g>
       <use xlink:href="#medc2113b73" x="34.50024" y="220.931717" style="stroke: #000000; stroke-width: 0.5"/>
      </g>
     </g>
    </g>
    <g id="ytick_6">
     <g id="line2d_77">
      <path d="M 34.50024 211.039403 
L 428.99976 211.039403 
" clip-path="url(#p13b0016ff7)" style="fill: none; stroke: #b0b0b0; stroke-opacity: 0.35; stroke-width: 0.15; stroke-linecap: square"/>
     </g>
     <g id="line2d_78">
      <g>
       <use xlink:href="#medc2113b73" x="34.50024" y="211.039403" style="stroke: #000000; stroke-width: 0.5"/>
      </g>
     </g>
    </g>
    <g id="ytick_7">
     <g id="line2d_79">
      <path d="M 34.50024 201.147089 
L 428.99976 201.147089 
" clip-path="url(#p13b0016ff7)" style="fill: none; stroke: #b0b0b0; stroke-opacity: 0.35; stroke-width: 0.15; stroke-linecap: square"/>
     </g>
     <g id="line2d_80">
      <g>
       <use xlink:href="#medc2113b73" x="34.50024" y="201.147089" style="stroke: #000000; stroke-width: 0.5"/>
      </g>
     </g>
    </g>
    <g id="ytick_8">
     <g id="line2d_81">
      <path d="M 34.50024 191.254774 
L 428.99976 191.254774 
" clip-path="url(#p13b0016ff7)" style="fill: none; stroke: #b0b0b0; stroke-opacity: 0.35; stroke-width: 0.15; stroke-linecap: square"/>
     </g>
     <g id="line2d_82">
      <g>
       <use xlink:href="#medc2113b73" x="34.50024" y="191.254774" style="stroke: #000000; stroke-width: 0.5"/>
      </g>
     </g>
    </g>
    <g id="ytick_9">
     <g id="line2d_83">
      <path d="M 34.50024 171.470146 
L 428.99976 171.470146 
" clip-path="url(#p13b0016ff7)" style="fill: none; stroke: #b0b0b0; stroke-opacity: 0.35; stroke-width: 0.15; stroke-linecap: square"/>
     </g>
     <g id="line2d_84">
      <g>
       <use xlink:href="#medc2113b73" x="34.50024" y="171.470146" style="stroke: #000000; stroke-width: 0.5"/>
      </g>
     </g>
    </g>
    <g id="ytick_10">
     <g id="line2d_85">
      <path d="M 34.50024 161.577831 
L 428.99976 161.577831 
" clip-path="url(#p13b0016ff7)" style="fill: none; stroke: #b0b0b0; stroke-opacity: 0.35; stroke-width: 0.15; stroke-linecap: square"/>
     </g>
     <g id="line2d_86">
      <g>
       <use xlink:href="#medc2113b73" x="34.50024" y="161.577831" style="stroke: #000000; stroke-width: 0.5"/>
      </g>
     </g>
    </g>
    <g id="ytick_11">
     <g id="line2d_87">
      <path d="M 34.50024 151.685517 
L 428.99976 151.685517 
" clip-path="url(#p13b0016ff7)" style="fill: none; stroke: #b0b0b0; stroke-opacity: 0.35; stroke-width: 0.15; stroke-linecap: square"/>
     </g>
     <g id="line2d_88">
      <g>
       <use xlink:href="#medc2113b73" x="34.50024" y="151.685517" style="stroke: #000000; stroke-width: 0.5"/>
      </g>
     </g>
    </g>
    <g id="ytick_12">
     <g id="line2d_89">
      <path d="M 34.50024 141.793203 
L 428.99976 141.793203 
" clip-path="url(#p13b0016ff7)" style="fill: none; stroke: #b0b0b0; stroke-opacity: 0.35; stroke-width: 0.15; stroke-linecap: square"/>
     </g>
     <g id="line2d_90">
      <g>
       <use xlink:href="#medc2113b73" x="34.50024" y="141.793203" style="stroke: #000000; stroke-width: 0.5"/>
      </g>
     </g>
    </g>
    <g id="ytick_13">
     <g id="line2d_91">
      <path d="M 34.50024 122.008574 
L 428.99976 122.008574 
" clip-path="url(#p13b0016ff7)" style="fill: none; stroke: #b0b0b0; stroke-opacity: 0.35; stroke-width: 0.15; stroke-linecap: square"/>
     </g>
     <g id="line2d_92">
      <g>
       <use xlink:href="#medc2113b73" x="34.50024" y="122.008574" style="stroke: #000000; stroke-width: 0.5"/>
      </g>
     </g>
    </g>
    <g id="ytick_14">
     <g id="line2d_93">
      <path d="M 34.50024 112.11626 
L 428.99976 112.11626 
" clip-path="url(#p13b0016ff7)" style="fill: none; stroke: #b0b0b0; stroke-opacity: 0.35; stroke-width: 0.15; stroke-linecap: square"/>
     </g>
     <g id="line2d_94">
      <g>
       <use xlink:href="#medc2113b73" x="34.50024" y="112.11626" style="stroke: #000000; stroke-width: 0.5"/>
      </g>
     </g>
    </g>
    <g id="ytick_15">
     <g id="line2d_95">
      <path d="M 34.50024 102.223945 
L 428.99976 102.223945 
" clip-path="url(#p13b0016ff7)" style="fill: none; stroke: #b0b0b0; stroke-opacity: 0.35; stroke-width: 0.15; stroke-linecap: square"/>
     </g>
     <g id="line2d_96">
      <g>
       <use xlink:href="#medc2113b73" x="34.50024" y="102.223945" style="stroke: #000000; stroke-width: 0.5"/>
      </g>
     </g>
    </g>
    <g id="ytick_16">
     <g id="line2d_97">
      <path d="M 34.50024 92.331631 
L 428.99976 92.331631 
" clip-path="url(#p13b0016ff7)" style="fill: none; stroke: #b0b0b0; stroke-opacity: 0.35; stroke-width: 0.15; stroke-linecap: square"/>
     </g>
     <g id="line2d_98">
      <g>
       <use xlink:href="#medc2113b73" x="34.50024" y="92.331631" style="stroke: #000000; stroke-width: 0.5"/>
      </g>
     </g>
    </g>
    <g id="ytick_17">
     <g id="line2d_99">
      <path d="M 34.50024 72.547002 
L 428.99976 72.547002 
" clip-path="url(#p13b0016ff7)" style="fill: none; stroke: #b0b0b0; stroke-opacity: 0.35; stroke-width: 0.15; stroke-linecap: square"/>
     </g>
     <g id="line2d_100">
      <g>
       <use xlink:href="#medc2113b73" x="34.50024" y="72.547002" style="stroke: #000000; stroke-width: 0.5"/>
      </g>
     </g>
    </g>
    <g id="ytick_18">
     <g id="line2d_101">
      <path d="M 34.50024 62.654688 
L 428.99976 62.654688 
" clip-path="url(#p13b0016ff7)" style="fill: none; stroke: #b0b0b0; stroke-opacity: 0.35; stroke-width: 0.15; stroke-linecap: square"/>
     </g>
     <g id="line2d_102">
      <g>
       <use xlink:href="#medc2113b73" x="34.50024" y="62.654688" style="stroke: #000000; stroke-width: 0.5"/>
      </g>
     </g>
    </g>
    <g id="ytick_19">
     <g id="line2d_103">
      <path d="M 34.50024 52.762374 
L 428.99976 52.762374 
" clip-path="url(#p13b0016ff7)" style="fill: none; stroke: #b0b0b0; stroke-opacity: 0.35; stroke-width: 0.15; stroke-linecap: square"/>
     </g>
     <g id="line2d_104">
      <g>
       <use xlink:href="#medc2113b73" x="34.50024" y="52.762374" style="stroke: #000000; stroke-width: 0.5"/>
      </g>
     </g>
    </g>
    <g id="ytick_20">
     <g id="line2d_105">
      <path d="M 34.50024 42.870059 
L 428.99976 42.870059 
" clip-path="url(#p13b0016ff7)" style="fill: none; stroke: #b0b0b0; stroke-opacity: 0.35; stroke-width: 0.15; stroke-linecap: square"/>
     </g>
     <g id="line2d_106">
      <g>
       <use xlink:href="#medc2113b73" x="34.50024" y="42.870059" style="stroke: #000000; stroke-width: 0.5"/>
      </g>
     </g>
    </g>
    <g id="ytick_21">
     <g id="line2d_107">
      <path d="M 34.50024 23.085431 
L 428.99976 23.085431 
" clip-path="url(#p13b0016ff7)" style="fill: none; stroke: #b0b0b0; stroke-opacity: 0.35; stroke-width: 0.15; stroke-linecap: square"/>
     </g>
     <g id="line2d_108">
      <g>
       <use xlink:href="#medc2113b73" x="34.50024" y="23.085431" style="stroke: #000000; stroke-width: 0.5"/>
      </g>
     </g>
    </g>
    <g id="ytick_22">
     <g id="line2d_109">
      <path d="M 34.50024 13.193116 
L 428.99976 13.193116 
" clip-path="url(#p13b0016ff7)" style="fill: none; stroke: #b0b0b0; stroke-opacity: 0.35; stroke-width: 0.15; stroke-linecap: square"/>
     </g>
     <g id="line2d_110">
      <g>
       <use xlink:href="#medc2113b73" x="34.50024" y="13.193116" style="stroke: #000000; stroke-width: 0.5"/>
      </g>
     </g>
    </g>
    <g id="ytick_23">
     <g id="line2d_111">
      <path d="M 34.50024 3.300802 
L 428.99976 3.300802 
" clip-path="url(#p13b0016ff7)" style="fill: none; stroke: #b0b0b0; stroke-opacity: 0.35; stroke-width: 0.15; stroke-linecap: square"/>
     </g>
     <g id="line2d_112">
      <g>
       <use xlink:href="#medc2113b73" x="34.50024" y="3.300802" style="stroke: #000000; stroke-width: 0.5"/>
      </g>
     </g>
    </g>
    <g id="text_10">
     <!-- Spectral Acceleration (g) -->
     <g transform="translate(12.75024 187.826016) rotate(-90) scale(0.13 -0.13)">
      <defs>
       <path id="Cmr10-53" d="M 359 -91 
L 359 1403 
Q 359 1453 416 1453 
L 494 1453 
Q 513 1453 528 1437 
Q 544 1422 544 1403 
Q 544 775 933 429 
Q 1322 84 1953 84 
Q 2175 84 2362 212 
Q 2550 341 2654 548 
Q 2759 756 2759 978 
Q 2759 1172 2681 1355 
Q 2603 1538 2456 1672 
Q 2309 1806 2125 1850 
L 1294 2053 
Q 881 2163 620 2502 
Q 359 2841 359 3263 
Q 359 3594 528 3884 
Q 697 4175 983 4344 
Q 1269 4513 1600 4513 
Q 2241 4513 2619 4078 
L 2881 4494 
Q 2900 4513 2925 4513 
L 2969 4513 
Q 2988 4513 3005 4498 
Q 3022 4484 3022 4459 
L 3022 2975 
Q 3022 2919 2969 2919 
L 2894 2919 
Q 2834 2919 2834 2975 
Q 2834 3138 2779 3331 
Q 2725 3525 2628 3703 
Q 2531 3881 2419 3994 
Q 2109 4306 1600 4306 
Q 1381 4306 1197 4195 
Q 1013 4084 903 3893 
Q 794 3703 794 3494 
Q 794 3219 964 2995 
Q 1134 2772 1409 2700 
L 2241 2497 
Q 2447 2447 2630 2317 
Q 2813 2188 2934 2016 
Q 3056 1844 3125 1633 
Q 3194 1422 3194 1197 
Q 3194 850 3034 542 
Q 2875 234 2586 46 
Q 2297 -141 1953 -141 
Q 1741 -141 1519 -94 
Q 1297 -47 1109 50 
Q 922 147 769 300 
L 500 -122 
Q 481 -141 453 -141 
L 416 -141 
Q 359 -141 359 -91 
z
" transform="scale(0.015625)"/>
       <path id="Cmr10-70" d="M 166 -1241 
L 166 -1019 
Q 384 -1019 525 -981 
Q 666 -944 666 -813 
L 666 2272 
Q 666 2447 541 2490 
Q 416 2534 166 2534 
L 166 2759 
L 1113 2828 
L 1113 2431 
Q 1288 2625 1520 2726 
Q 1753 2828 2016 2828 
Q 2394 2828 2697 2623 
Q 3000 2419 3170 2086 
Q 3341 1753 3341 1381 
Q 3341 994 3152 659 
Q 2963 325 2636 126 
Q 2309 -72 1919 -72 
Q 1453 -72 1131 306 
L 1131 -813 
Q 1131 -944 1273 -981 
Q 1416 -1019 1631 -1019 
L 1631 -1241 
L 166 -1241 
z
M 1131 622 
Q 1244 394 1444 245 
Q 1644 97 1881 97 
Q 2103 97 2273 215 
Q 2444 334 2559 534 
Q 2675 734 2729 954 
Q 2784 1175 2784 1381 
Q 2784 1638 2692 1936 
Q 2600 2234 2411 2439 
Q 2222 2644 1953 2644 
Q 1694 2644 1476 2511 
Q 1259 2378 1131 2150 
L 1131 622 
z
" transform="scale(0.015625)"/>
       <path id="Cmr10-74" d="M 653 769 
L 653 2534 
L 122 2534 
L 122 2700 
Q 541 2700 737 3090 
Q 934 3481 934 3938 
L 1119 3938 
L 1119 2759 
L 2022 2759 
L 2022 2534 
L 1119 2534 
L 1119 781 
Q 1119 516 1208 316 
Q 1297 116 1528 116 
Q 1747 116 1844 327 
Q 1941 538 1941 781 
L 1941 1159 
L 2125 1159 
L 2125 769 
Q 2125 569 2051 373 
Q 1978 178 1834 53 
Q 1691 -72 1484 -72 
Q 1100 -72 876 158 
Q 653 388 653 769 
z
" transform="scale(0.015625)"/>
       <path id="Cmr10-61" d="M 256 628 
Q 256 1009 556 1248 
Q 856 1488 1276 1586 
Q 1697 1684 2075 1684 
L 2075 1947 
Q 2075 2131 1994 2304 
Q 1913 2478 1759 2589 
Q 1606 2700 1422 2700 
Q 997 2700 775 2509 
Q 897 2509 976 2417 
Q 1056 2325 1056 2203 
Q 1056 2075 965 1984 
Q 875 1894 750 1894 
Q 622 1894 531 1984 
Q 441 2075 441 2203 
Q 441 2541 747 2705 
Q 1053 2869 1422 2869 
Q 1681 2869 1943 2758 
Q 2206 2647 2373 2440 
Q 2541 2234 2541 1959 
L 2541 519 
Q 2541 394 2594 289 
Q 2647 184 2759 184 
Q 2866 184 2917 290 
Q 2969 397 2969 519 
L 2969 928 
L 3156 928 
L 3156 519 
Q 3156 375 3081 245 
Q 3006 116 2879 39 
Q 2753 -38 2606 -38 
Q 2419 -38 2283 107 
Q 2147 253 2131 453 
Q 2013 213 1781 70 
Q 1550 -72 1288 -72 
Q 1044 -72 808 0 
Q 572 72 414 226 
Q 256 381 256 628 
z
M 775 628 
Q 775 403 940 250 
Q 1106 97 1331 97 
Q 1538 97 1706 200 
Q 1875 303 1975 481 
Q 2075 659 2075 856 
L 2075 1522 
Q 1784 1522 1479 1426 
Q 1175 1331 975 1128 
Q 775 925 775 628 
z
" transform="scale(0.015625)"/>
       <path id="Cmr10-6c" d="M 197 0 
L 197 225 
Q 416 225 556 259 
Q 697 294 697 428 
L 697 3788 
Q 697 3959 645 4036 
Q 594 4113 497 4130 
Q 400 4147 197 4147 
L 197 4372 
L 1147 4441 
L 1147 428 
Q 1147 294 1287 259 
Q 1428 225 1644 225 
L 1644 0 
L 197 0 
z
" transform="scale(0.015625)"/>
       <path id="Cmr10-41" d="M 206 0 
L 206 225 
Q 778 225 909 603 
L 2253 4513 
Q 2272 4581 2356 4581 
L 2438 4581 
Q 2522 4581 2541 4513 
L 3944 428 
Q 4003 294 4170 259 
Q 4338 225 4588 225 
L 4588 0 
L 2803 0 
L 2803 225 
Q 3334 225 3334 397 
L 3334 428 
L 2988 1428 
L 1434 1428 
L 1147 603 
Q 1141 581 1141 538 
Q 1141 378 1292 301 
Q 1444 225 1619 225 
L 1619 0 
L 206 0 
z
M 1509 1650 
L 2913 1650 
L 2209 3694 
L 1509 1650 
z
" transform="scale(0.015625)"/>
       <path id="Cmr10-69" d="M 197 0 
L 197 225 
Q 416 225 556 259 
Q 697 294 697 428 
L 697 2175 
Q 697 2422 601 2478 
Q 506 2534 225 2534 
L 225 2759 
L 1147 2828 
L 1147 428 
Q 1147 294 1269 259 
Q 1391 225 1594 225 
L 1594 0 
L 197 0 
z
M 469 3928 
Q 469 4069 575 4175 
Q 681 4281 819 4281 
Q 909 4281 993 4234 
Q 1078 4188 1125 4103 
Q 1172 4019 1172 3928 
Q 1172 3791 1065 3684 
Q 959 3578 819 3578 
Q 681 3578 575 3684 
Q 469 3791 469 3928 
z
" transform="scale(0.015625)"/>
       <path id="Cmr10-6f" d="M 1600 -72 
Q 1216 -72 887 123 
Q 559 319 368 647 
Q 178 975 178 1363 
Q 178 1656 283 1928 
Q 388 2200 583 2414 
Q 778 2628 1037 2748 
Q 1297 2869 1600 2869 
Q 1994 2869 2317 2661 
Q 2641 2453 2828 2104 
Q 3016 1756 3016 1363 
Q 3016 978 2825 648 
Q 2634 319 2307 123 
Q 1981 -72 1600 -72 
z
M 1600 116 
Q 2113 116 2284 487 
Q 2456 859 2456 1434 
Q 2456 1756 2422 1967 
Q 2388 2178 2272 2350 
Q 2200 2456 2089 2536 
Q 1978 2616 1854 2658 
Q 1731 2700 1600 2700 
Q 1400 2700 1220 2609 
Q 1041 2519 922 2350 
Q 803 2169 770 1951 
Q 738 1734 738 1434 
Q 738 1075 800 789 
Q 863 503 1052 309 
Q 1241 116 1600 116 
z
" transform="scale(0.015625)"/>
       <path id="Cmr10-67" d="M 178 -500 
Q 178 -272 343 -101 
Q 509 69 738 141 
Q 609 238 542 384 
Q 475 531 475 697 
Q 475 997 666 1228 
Q 372 1516 372 1888 
Q 372 2088 458 2263 
Q 544 2438 697 2566 
Q 850 2694 1037 2761 
Q 1225 2828 1422 2828 
Q 1803 2828 2106 2606 
Q 2238 2747 2417 2823 
Q 2597 2900 2791 2900 
Q 2928 2900 3015 2801 
Q 3103 2703 3103 2566 
Q 3103 2488 3043 2428 
Q 2984 2369 2906 2369 
Q 2825 2369 2765 2428 
Q 2706 2488 2706 2566 
Q 2706 2684 2784 2731 
Q 2453 2731 2216 2503 
Q 2331 2388 2401 2220 
Q 2472 2053 2472 1888 
Q 2472 1616 2322 1398 
Q 2172 1181 1926 1061 
Q 1681 941 1422 941 
Q 1072 941 781 1131 
Q 691 1006 691 850 
Q 691 681 802 554 
Q 913 428 1081 428 
L 1606 428 
Q 1988 428 2294 359 
Q 2600 291 2808 84 
Q 3016 -122 3016 -500 
Q 3016 -781 2778 -967 
Q 2541 -1153 2211 -1236 
Q 1881 -1319 1600 -1319 
Q 1316 -1319 984 -1236 
Q 653 -1153 415 -967 
Q 178 -781 178 -500 
z
M 538 -500 
Q 538 -716 713 -861 
Q 888 -1006 1134 -1076 
Q 1381 -1147 1600 -1147 
Q 1816 -1147 2062 -1076 
Q 2309 -1006 2482 -861 
Q 2656 -716 2656 -500 
Q 2656 -166 2350 -67 
Q 2044 31 1606 31 
L 1081 31 
Q 934 31 811 -39 
Q 688 -109 613 -236 
Q 538 -363 538 -500 
z
M 1422 1113 
Q 1966 1113 1966 1888 
Q 1966 2222 1850 2439 
Q 1734 2656 1422 2656 
Q 1109 2656 993 2439 
Q 878 2222 878 1888 
Q 878 1675 922 1503 
Q 966 1331 1084 1222 
Q 1203 1113 1422 1113 
z
" transform="scale(0.015625)"/>
      </defs>
      <use xlink:href="#Cmr10-53"/>
      <use xlink:href="#Cmr10-70" transform="translate(55.517578 0)"/>
      <use xlink:href="#Cmr10-65" transform="translate(111.035156 0)"/>
      <use xlink:href="#Cmr10-63" transform="translate(155.419922 0)"/>
      <use xlink:href="#Cmr10-74" transform="translate(199.804688 0)"/>
      <use xlink:href="#Cmr10-72" transform="translate(238.623047 0)"/>
      <use xlink:href="#Cmr10-61" transform="translate(277.734375 0)"/>
      <use xlink:href="#Cmr10-6c" transform="translate(327.734375 0)"/>
      <use xlink:href="#Cmr10-20" transform="translate(355.419922 0)"/>
      <use xlink:href="#Cmr10-41" transform="translate(388.720703 0)"/>
      <use xlink:href="#Cmr10-63" transform="translate(463.720703 0)"/>
      <use xlink:href="#Cmr10-63" transform="translate(508.105469 0)"/>
      <use xlink:href="#Cmr10-65" transform="translate(552.490234 0)"/>
      <use xlink:href="#Cmr10-6c" transform="translate(596.875 0)"/>
      <use xlink:href="#Cmr10-65" transform="translate(624.560547 0)"/>
      <use xlink:href="#Cmr10-72" transform="translate(668.945312 0)"/>
      <use xlink:href="#Cmr10-61" transform="translate(708.056641 0)"/>
      <use xlink:href="#Cmr10-74" transform="translate(758.056641 0)"/>
      <use xlink:href="#Cmr10-69" transform="translate(796.875 0)"/>
      <use xlink:href="#Cmr10-6f" transform="translate(824.560547 0)"/>
      <use xlink:href="#Cmr10-6e" transform="translate(874.560547 0)"/>
      <use xlink:href="#Cmr10-20" transform="translate(930.078125 0)"/>
      <use xlink:href="#Cmr10-28" transform="translate(963.378906 0)"/>
      <use xlink:href="#Cmr10-67" transform="translate(1002.197266 0)"/>
      <use xlink:href="#Cmr10-29" transform="translate(1052.197266 0)"/>
     </g>
    </g>
   </g>
   <g id="line2d_113">
    <path d="M 34.50024 230.81976 
L 143.236237 230.297808 
L 172.558473 228.275811 
L 190.219311 223.931677 
L 202.897487 215.985979 
L 212.794508 207.392909 
L 220.913706 180.977396 
L 227.797568 173.935738 
L 233.772834 154.09313 
L 239.051629 144.84915 
L 243.779493 139.584433 
L 248.060636 117.908595 
L 251.972235 122.12084 
L 255.573049 147.95129 
L 258.908849 149.233889 
L 262.015984 130.796792 
L 264.923803 95.787738 
L 267.656342 46.626264 
L 270.233537 11.175637 
L 272.672105 3.00024 
L 274.986201 20.112916 
L 277.187916 47.892834 
L 279.287663 63.012943 
L 281.29447 81.282537 
L 283.216217 106.583219 
L 285.059822 127.894117 
L 286.831392 139.866818 
L 288.536346 145.535748 
L 290.179512 139.651239 
L 291.765214 131.733226 
L 296.214508 113.353395 
L 297.605612 109.443939 
L 298.955308 109.556973 
L 300.26599 115.264584 
L 301.53985 126.144056 
L 302.778901 123.325811 
L 303.984994 122.666554 
L 305.159838 125.953796 
L 306.30501 132.221025 
L 307.421974 135.36146 
L 308.512085 132.47668 
L 309.576604 128.605997 
L 310.616706 126.366682 
L 311.633484 125.636301 
L 312.627964 125.166234 
L 313.6011 124.384819 
L 314.553792 123.258989 
L 316.401152 120.274957 
L 318.17619 117.544029 
L 319.038316 116.793352 
L 319.884356 116.851719 
L 320.7149 117.945661 
L 321.530505 120.143256 
L 322.3317 121.886816 
L 323.118984 124.173924 
L 324.653697 130.77047 
L 325.402005 127.670842 
L 326.138164 123.045304 
L 326.862563 120.50418 
L 327.575572 120.591284 
L 328.277544 123.598472 
L 328.968814 129.485989 
L 329.649704 134.196169 
L 330.98156 133.047325 
L 331.6331 132.262773 
L 332.275412 131.303287 
L 334.149498 127.749898 
L 334.757368 127.224108 
L 335.357197 127.351349 
L 335.949196 128.196308 
L 336.533565 129.888282 
L 337.110499 132.590923 
L 337.680186 136.370123 
L 338.242804 141.115143 
L 338.798527 144.50097 
L 339.88995 146.894909 
L 340.425966 148.846683 
L 340.95572 151.618912 
L 341.479357 155.26868 
L 341.997015 155.179935 
L 342.508832 154.468801 
L 343.014936 154.87361 
L 343.515453 156.353668 
L 344.984689 163.481543 
L 345.464042 163.342027 
L 345.938382 162.215856 
L 346.87243 160.846682 
L 347.332337 160.407145 
L 347.787626 160.211519 
L 348.238389 160.419262 
L 348.684716 161.194769 
L 349.126693 160.321901 
L 349.564403 160.160107 
L 349.997929 160.738309 
L 350.427349 161.662331 
L 350.852741 162.183548 
L 351.274179 163.075139 
L 351.691736 164.300408 
L 354.119422 156.025196 
L 355.286204 153.446171 
L 356.047707 152.334731 
L 356.423716 152.02889 
L 356.796633 151.975405 
L 357.166508 152.197977 
L 357.533391 152.650949 
L 358.258369 154.255871 
L 359.324557 157.747018 
L 361.047653 164.296156 
L 362.707664 170.824201 
L 363.675263 173.828164 
L 363.993262 174.416443 
L 365.243415 174.116918 
L 365.550642 174.215967 
L 366.158919 174.76999 
L 367.056306 176.250043 
L 367.936277 177.671191 
L 368.513579 178.193275 
L 369.083623 178.40043 
L 369.64659 178.567936 
L 370.202654 179.017944 
L 370.751981 179.02753 
L 371.294734 179.379664 
L 372.096873 180.233088 
L 372.623857 178.583545 
L 373.6598 175.247661 
L 374.421516 173.372713 
L 375.170648 172.181046 
L 375.663281 171.751485 
L 376.15062 171.559003 
L 376.632777 171.552999 
L 377.346534 171.81257 
L 378.049231 172.266389 
L 379.196722 173.351036 
L 380.536448 174.612686 
L 383.310142 177.09873 
L 383.92683 177.933464 
L 384.130543 178.272988 
L 384.333345 178.103756 
L 385.333969 176.398997 
L 386.312989 175.440269 
L 386.890413 175.235953 
L 387.271318 175.262815 
L 387.64905 175.428423 
L 388.023661 175.738073 
L 388.579838 176.480265 
L 389.129277 177.545166 
L 390.208576 180.201353 
L 390.914097 179.577332 
L 391.436126 179.352522 
L 392.122946 179.225229 
L 392.63132 179.440472 
L 393.134057 179.744807 
L 393.959761 178.015567 
L 394.448062 177.282814 
L 395.091057 176.682982 
L 395.567389 176.446291 
L 396.03877 176.34166 
L 396.967082 176.549862 
L 397.575564 177.034225 
L 398.473246 178.336102 
L 399.353502 180.106085 
L 400.783656 178.823036 
L 401.758586 178.596245 
L 402.306421 178.720807 
L 404.692928 179.763599 
L 405.96643 179.679335 
L 410.161509 180.063143 
L 413.79028 180.598278 
L 415.856063 180.803127 
L 417.735055 181.007708 
L 427.384469 181.075846 
L 428.99976 180.942955 
L 428.99976 180.942955 
" clip-path="url(#p13b0016ff7)" style="fill: none; stroke: #0077bb; stroke-linecap: square"/>
   </g>
   <g id="patch_3">
    <path d="M 34.50024 230.81976 
L 34.50024 3.00024 
" style="fill: none; stroke: #333333; stroke-width: 0.6; stroke-linejoin: miter; stroke-linecap: square"/>
   </g>
   <g id="patch_4">
    <path d="M 428.99976 230.81976 
L 428.99976 3.00024 
" style="fill: none; stroke: #333333; stroke-width: 0.6; stroke-linejoin: miter; stroke-linecap: square"/>
   </g>
   <g id="patch_5">
    <path d="M 34.50024 230.81976 
L 428.99976 230.81976 
" style="fill: none; stroke: #333333; stroke-width: 0.6; stroke-linejoin: miter; stroke-linecap: square"/>
   </g>
   <g id="patch_6">
    <path d="M 34.50024 3.00024 
L 428.99976 3.00024 
" style="fill: none; stroke: #333333; stroke-width: 0.6; stroke-linejoin: miter; stroke-linecap: square"/>
   </g>
  </g>
 </g>
 <defs>
  <clipPath id="p13b0016ff7">
   <rect x="34.50024" y="3.00024" width="394.49952" height="227.81952"/>
  </clipPath>
 </defs>
</svg>
